<?xml version="1.0" standalone="no"?>
<!DOCTYPE svg PUBLIC "-//W3C//DTD SVG 20010904//EN"
 "http://www.w3.org/TR/2001/REC-SVG-20010904/DTD/svg10.dtd">
<svg version="1.0" xmlns="http://www.w3.org/2000/svg"
 width="512.000000pt" height="512.000000pt" viewBox="0 0 512.000000 512.000000"
 preserveAspectRatio="xMidYMid meet">
<metadata>
Created by potrace 1.14, written by Peter Selinger 2001-2017
</metadata>
<g transform="translate(0.000000,512.000000) scale(0.100000,-0.100000)"
fill="#000000" stroke="none">
<path d="M2247 5113 c-2 -5 -4 -88 -3 -186 1 -169 0 -177 -19 -182 -77 -21
-109 -30 -175 -52 -41 -14 -103 -38 -138 -54 -35 -16 -65 -29 -67 -29 -5 0
-137 -81 -200 -123 -113 -76 -248 -200 -345 -317 -173 -210 -309 -505 -345
-746 -4 -21 -9 -50 -13 -64 -10 -41 -12 -1170 -1 -1240 17 -121 19 -133 39
-210 21 -81 52 -168 94 -263 l26 -59 -184 -186 c-102 -103 -196 -200 -211
-216 l-27 -29 -62 62 -63 62 -251 -250 -251 -251 390 -389 389 -390 251 251
251 251 -63 63 -62 63 179 181 c98 99 181 185 182 190 3 8 85 -41 102 -61 13
-15 169 -103 252 -142 51 -25 102 -54 113 -67 29 -32 131 -103 194 -135 30
-15 95 -37 145 -50 235 -60 491 5 672 169 41 37 82 63 125 79 92 35 201 91
296 153 68 44 85 51 95 40 7 -8 89 -91 182 -185 l169 -172 -39 -41 c-21 -23
-50 -51 -64 -63 l-24 -22 251 -252 251 -251 389 390 390 389 -251 251 -250
250 -61 -60 c-60 -59 -61 -60 -80 -42 -11 11 -107 108 -213 216 -165 167 -191
198 -183 214 9 17 18 41 56 148 15 41 57 215 71 289 4 22 9 303 11 625 4 506
2 600 -12 695 -61 408 -242 740 -556 1018 -171 153 -472 307 -679 351 l-55 11
-3 188 -2 187 -305 0 c-167 0 -306 -3 -308 -7z"/>
</g>
</svg>
